HIERARCHY
ROOT Hips
{
	OFFSET -0.179506 -22.333345 2.821913
	CHANNELS 6 Xposition Yposition Zposition Zrotation Yrotation Xrotation 
	JOINT LeftUpLeg
	{
		OFFSET 6.951974 -9.140623 -0.681533
		CHANNELS 3 Zrotation Yrotation Xrotation
		JOINT LeftLeg
		{
			OFFSET 3.427654 -37.519855 -0.449580
			CHANNELS 3 Zrotation Yrotation Xrotation
			JOINT LeftFoot
			{
				OFFSET -1.359570 -39.796059 -4.369333
				CHANNELS 3 Zrotation Yrotation Xrotation
				JOINT LeftToe
				{
					OFFSET 2.635814 -5.579078 11.928840
					CHANNELS 3 Zrotation Yrotation Xrotation
					End Site
					{
						OFFSET 0.000000 0.000000 0.000000
					}
				}
			}
		}
	}
	JOINT RightUpLeg
	{
		OFFSET -6.767048 -9.052170 -0.431982
		CHANNELS 3 Zrotation Yrotation Xrotation
		JOINT RightLeg
		{
			OFFSET -3.829005 -38.256897 -0.885003
			CHANNELS 3 Zrotation Yrotation Xrotation
			JOINT RightFoot
			{
				OFFSET 1.577377 -39.841461 -4.231180
				CHANNELS 3 Zrotation Yrotation Xrotation
				JOINT RightToe
				{
					OFFSET -2.537174 -4.814398 12.334795
					CHANNELS 3 Zrotation Yrotation Xrotation
					End Site
					{
						OFFSET 0.000000 0.000000 0.000000
					}
				}
			}
		}
	}
	JOINT Spine
	{
		OFFSET -0.253288 10.896323 -2.669631
		CHANNELS 3 Zrotation Yrotation Xrotation
		JOINT Spine1
		{
			OFFSET 0.548704 13.518043 0.109247
			CHANNELS 3 Zrotation Yrotation Xrotation
			JOINT Spine2
			{
				OFFSET 0.145701 5.292222 2.542457
				CHANNELS 3 Zrotation Yrotation Xrotation
				JOINT Neck
				{
					OFFSET -0.277840 21.387037 -4.285703
					CHANNELS 3 Zrotation Yrotation Xrotation
					JOINT Head
					{
						OFFSET 0.515184 6.496960 5.134897
						CHANNELS 3 Zrotation Yrotation Xrotation
						End Site
						{
							OFFSET 0.000000 0.000000 0.000000
						}
					}
				}
				JOINT LeftShoulder
				{
					OFFSET 7.884473 12.174932 -3.408961
					CHANNELS 3 Zrotation Yrotation Xrotation
					JOINT LeftArm
					{
						OFFSET 9.097692 3.046888 -0.886815
						CHANNELS 3 Zrotation Yrotation Xrotation
						JOINT LeftForeArm
						{
							OFFSET 25.961220 -1.277207 -2.745643
							CHANNELS 3 Zrotation Yrotation Xrotation
							JOINT LeftHand
							{
								OFFSET 24.923361 0.898606 -0.117091
								CHANNELS 3 Zrotation Yrotation Xrotation
								End Site
								{
									OFFSET 0.000000 0.000000 0.000000
								}
							}
						}
					}
				}
				JOINT RightShoulder
				{
					OFFSET -8.175920 11.883285 -3.861528
					CHANNELS 3 Zrotation Yrotation Xrotation
					JOINT RightArm
					{
						OFFSET -9.601238 3.255117 -0.914307
						CHANNELS 3 Zrotation Yrotation Xrotation
						JOINT RightForeArm
						{
							OFFSET -25.374195 -1.332924 -2.140099
							CHANNELS 3 Zrotation Yrotation Xrotation
							JOINT RightHand
							{
								OFFSET -25.529810 0.777228 -0.555919
								CHANNELS 3 Zrotation Yrotation Xrotation
								End Site
								{
									OFFSET 0.000000 0.000000 0.000000
								}
							}
						}
					}
				}
			}
		}
	}
}
MOTION
Frames: 17
Frame Time: 0.033333
-0.179506 117.988861 2.821913 -160.565147 74.661262 -165.301854 -0.579928 3.549007 7.834441 1.363383 -1.352998 0.224207 -2.744738 9.412463 -7.511735 2.182248 1.710146 1.270476 -4.542421 -2.054722 4.218193 -2.593630 5.418662 1.889885 8.480643 -2.776064 0.235913 5.051977 -3.336235 0.396745 0.658433 0.954548 -5.359224 4.390971 -6.329277 8.180436 0.802238 -1.017604 -4.415918 -2.072346 -2.928127 11.652952 7.343056 4.027537 -2.479621 -10.916014 -0.018033 2.617476 -39.079690 -7.863515 9.387285 -2.607590 -55.868127 12.160315 -11.864949 -11.911078 -0.276849 3.410917 -1.025732 2.418067 32.355484 -4.864609 4.386577 -23.949856 66.278597 -12.220226 9.577917 8.682054 -5.496258 
-0.337160 117.967972 2.655241 -160.746464 74.526295 -165.457334 -0.717748 3.489995 7.706646 1.320653 -1.251337 0.216650 -2.610920 9.434728 -7.454838 2.202671 1.746671 1.430289 -4.653406 -2.163365 3.854103 -2.624684 5.687982 2.443359 8.459215 -2.814960 0.120954 4.992447 -3.327620 0.370386 0.654780 0.978979 -5.269544 4.501624 -6.345808 8.244576 0.811397 -0.996373 -4.289789 -2.028763 -3.240822 12.299883 7.501147 3.515653 -1.729115 -10.398549 -0.133158 2.466244 -37.855566 -8.241528 9.081354 -2.809060 -57.685890 11.699083 -11.717862 -12.323690 -1.115269 3.274426 -1.142337 2.309511 30.921025 -5.038551 3.760869 -25.741451 67.007821 -14.984323 9.810281 9.064164 -6.361181 
-0.716437 117.915146 2.574167 -161.153602 74.393026 -165.901354 -0.968192 3.335670 7.448630 1.381433 -1.682883 0.267579 -2.386975 9.736867 -7.485604 2.266987 1.753443 1.416496 -4.715222 -2.086212 3.317183 -2.775858 6.209230 3.184835 8.367569 -3.079234 -0.157827 5.032498 -3.276391 0.348547 0.785326 0.937439 -4.729323 4.504846 -6.353576 8.134533 0.954586 -1.019128 -3.977244 -1.961594 -3.723274 12.946142 7.793063 3.013012 -0.835721 -9.437370 -0.668796 2.187366 -36.432557 -9.005864 8.566900 -3.216479 -59.597839 11.642769 -11.368561 -12.688529 -2.093905 2.651682 -0.938282 2.085772 29.068114 -4.997476 2.889384 -27.529243 67.602745 -17.547757 10.108320 9.127759 -6.719388 
-1.290309 117.856476 2.274590 -160.908649 74.442535 -165.701541 -1.267771 3.217726 6.974340 1.324580 -2.043176 0.534713 -1.995879 10.226617 -7.514766 2.314647 1.742238 1.328612 -4.818167 -2.078702 2.473842 -2.947948 6.646098 4.189539 8.426578 -3.159719 -0.183034 5.075774 -3.216666 0.320767 0.954128 0.892760 -3.946832 4.428465 -6.281493 7.967791 1.176030 -0.960273 -3.624068 -1.984266 -4.185648 13.753716 8.214756 2.804759 0.044138 -8.330953 -1.437234 1.882806 -34.734331 -10.012037 7.857268 -2.728464 -62.022968 10.650556 -10.025045 -13.135434 -3.224887 1.819372 -0.591780 2.007738 26.856689 -4.856632 1.842707 -29.390785 68.272100 -20.055217 9.699166 9.195008 -6.952071 
-1.751840 117.809448 2.285551 -160.842290 74.368485 -165.322116 -1.355094 3.159457 6.058131 1.317828 -2.402440 0.915308 -1.771098 10.525438 -7.547865 2.349975 1.791244 1.284070 -4.712080 -2.064912 1.254472 -3.021150 6.996119 5.295455 8.396648 -3.395152 -0.403260 5.083396 -3.170549 0.335392 1.154303 0.862710 -3.085683 4.388441 -6.309110 7.944954 1.538028 -0.890567 -3.354330 -2.222259 -4.632144 14.715723 8.650827 2.552159 0.511476 -6.689859 -2.546689 1.279932 -32.976151 -11.169147 7.074581 -1.745547 -64.061734 9.162774 -8.101027 -13.197179 -4.614554 0.547182 -0.007649 1.703942 24.407084 -4.612516 0.717948 -30.843386 68.442698 -22.371117 8.710537 9.126861 -7.343177 
-2.655644 117.776917 2.543723 -160.941669 74.427149 -165.030543 -1.496632 3.154285 4.971503 1.354229 -2.665968 0.767632 -1.692862 11.008524 -7.255174 2.303274 1.805518 1.312924 -4.622571 -2.126055 -0.521288 -2.995634 7.135474 6.618578 8.483024 -3.731377 -0.602883 4.895540 -3.099529 0.352761 1.495845 0.709849 -1.876474 4.188341 -6.328664 7.879842 1.928879 -0.836737 -3.031682 -2.298018 -4.993220 15.224117 9.054877 2.732777 0.789810 -4.822001 -3.682205 0.588603 -30.435810 -12.237584 6.033953 -0.199406 -66.360078 6.906852 -6.876451 -12.891978 -5.861063 -0.951997 0.538459 1.401247 22.145053 -4.262369 -0.281971 -32.198545 68.762014 -24.248841 8.678385 8.681187 -7.015773 
-3.865310 117.767395 2.632513 -160.377812 74.846169 -164.032338 -1.803159 3.007988 3.879196 1.435643 -2.972516 0.226617 -1.549510 11.730626 -6.608998 2.201718 1.822124 1.323891 -4.596198 -1.952435 -2.517484 -3.016390 7.256108 7.754782 8.866526 -4.232289 -0.258123 4.651003 -3.010826 0.456504 1.828720 0.468408 -0.154034 3.994305 -6.276828 7.820658 2.330149 -0.718592 -2.571269 -2.417830 -5.090323 15.901432 9.540408 2.632143 1.086245 -2.975163 -5.096317 -0.216680 -27.412890 -13.348458 4.859651 0.424563 -68.058446 5.225490 -5.588160 -12.913428 -7.110509 -2.391730 1.373409 1.108360 19.433977 -3.882751 -1.476212 -33.079381 69.051976 -26.228717 8.410160 8.507285 -7.080887 
-5.439413 117.747101 2.734123 -159.336185 75.241378 -162.332844 -1.951896 2.504359 2.178860 1.352052 -3.824838 -0.137760 -1.440199 12.845591 -5.803484 2.001287 1.850472 1.160421 -4.511478 -1.842213 -4.990664 -2.943488 7.047754 9.055746 9.134237 -4.855712 -0.055110 4.482574 -2.893997 0.590366 2.450335 0.378576 1.979062 3.592689 -6.152071 7.748974 2.745126 -0.529197 -2.122035 -2.988971 -5.035428 16.505752 9.744836 2.460182 1.410535 -1.119688 -6.909520 -1.294370 -24.385959 -14.583524 3.437940 1.822772 -68.499463 2.742395 -4.579979 -12.905520 -7.496578 -3.780416 2.480912 0.785531 16.708912 -3.664885 -2.718108 -33.962425 68.905754 -28.119150 8.267011 8.336434 -6.413969 
-7.085100 117.667953 3.096483 -159.170100 75.584582 -161.409153 -2.107519 2.100178 0.158842 1.245344 -4.478312 -0.249642 -1.449475 13.737375 -5.093801 1.883105 1.775508 1.120534 -4.361206 -1.641555 -7.239927 -3.002097 6.776798 10.044300 8.797228 -5.786523 -0.759855 4.355476 -2.790785 0.769276 3.007683 0.220048 4.628362 3.143718 -6.044253 8.016723 3.152795 -0.368893 -1.974566 -3.369315 -5.202444 16.825615 10.052347 2.200319 1.698321 0.674730 -8.909341 -2.490217 -21.571838 -16.265895 1.568152 4.778729 -67.692690 -0.887889 -3.537472 -12.637959 -6.119718 -5.344463 4.005733 0.390826 14.611264 -2.830612 -3.741030 -31.253835 67.738989 -25.536243 7.974118 8.041461 -4.728276 
-7.875416 117.500427 3.669054 -160.328100 75.783680 -161.313741 -2.161404 1.559516 -2.029456 1.005295 -5.549025 0.040107 -1.092590 14.522549 -4.606023 1.875620 1.749306 0.922235 -4.003645 -1.385681 -9.324796 -2.788975 6.373705 11.015947 7.783604 -6.830029 -1.912290 4.400735 -2.796996 0.819888 3.523746 0.066992 7.516433 2.669335 -6.002269 8.056648 3.450766 -0.268812 -1.981635 -3.642193 -4.843947 16.842721 10.533717 2.368570 1.679266 2.033773 -10.701413 -3.542527 -18.842193 -17.489606 -0.296031 6.142154 -65.486622 -2.600682 -3.340033 -12.836237 -4.758353 -6.698363 5.683540 -0.134687 13.597862 -1.915263 -4.588500 -28.764462 66.309247 -22.947473 7.799360 8.083224 -3.546070 
-9.267774 117.228821 4.032931 -161.258926 75.764200 -160.860141 -2.269903 0.820428 -5.113505 0.649510 -5.653436 1.053041 -0.757591 14.723971 -4.367067 1.826743 1.723476 0.691040 -3.806291 -1.140464 -12.225555 -2.601151 5.593890 12.060996 6.982627 -7.552726 -2.105126 4.765835 -2.818612 0.953492 4.186726 -0.075996 10.960376 2.275597 -5.941992 8.244511 3.791772 -0.180198 -2.088941 -4.534219 -5.052116 16.861231 10.761952 2.613822 0.949569 3.485383 -12.718669 -4.831580 -17.294715 -19.412496 -1.861560 7.401991 -62.756807 -4.009179 -2.322134 -12.863646 -2.929866 -7.951819 7.237938 -0.663268 12.967429 -1.113096 -5.365553 -27.529485 64.542486 -21.826618 7.196297 8.180282 -2.079297 
-10.200195 116.833466 4.482709 -162.616553 75.782737 -160.637022 -2.315484 0.207742 -7.843986 0.332515 -5.798227 1.580173 -0.273603 14.732944 -4.327078 1.630357 1.773901 0.539180 -3.560923 -0.948057 -14.758522 -2.628026 4.831670 12.564392 6.206843 -8.126008 -2.687670 4.870934 -2.853423 1.112912 4.686346 -0.260805 14.422425 1.895033 -5.920721 8.341981 4.243688 -0.099181 -2.280092 -5.095617 -5.387083 16.352228 11.025140 2.614189 0.421404 4.786716 -14.679520 -6.163036 -15.956561 -21.465983 -3.411628 8.054582 -59.421383 -4.975219 -1.875717 -12.728727 -1.314116 -9.021591 9.125073 -1.439208 12.676106 0.284930 -5.979034 -24.780766 61.361656 -19.477988 6.973246 7.970603 -0.399886 
-10.387327 116.298279 5.002051 -165.453058 75.855122 -161.344941 -2.507659 -0.424338 -10.659878 -0.061938 -5.591512 2.224321 -0.051194 14.520333 -5.105562 1.634462 1.797796 0.263046 -3.614768 -0.821107 -17.318842 -2.713792 3.968619 12.936363 5.078551 -8.436249 -3.765043 5.279581 -2.997664 1.284254 5.202911 -0.330377 18.112557 1.726113 -5.960047 8.576773 4.734580 0.042817 -2.488341 -5.322047 -5.292246 15.600487 11.362870 2.519710 -0.419201 6.281167 -17.018796 -7.386527 -15.276079 -23.699447 -5.183481 7.302900 -54.508889 -4.105467 -1.906753 -12.581442 1.132298 -10.438919 11.349572 -2.382438 12.750612 2.328275 -7.009322 -21.628677 57.658230 -16.496854 6.605965 7.939245 1.132298 
-10.554048 115.668747 5.881059 -168.395926 75.181677 -161.454471 -2.407677 -1.072513 -14.472624 -0.234162 -4.386689 3.064411 0.063403 13.511873 -5.700777 1.698495 1.905362 0.030488 -3.499601 -0.838901 -20.864111 -2.772733 2.389848 13.843921 3.639656 -8.704702 -5.230252 5.572587 -3.001403 1.345613 5.587979 -0.367080 22.316946 1.632018 -6.046063 8.648808 5.302127 0.293447 -3.050790 -5.547023 -5.531074 13.896364 11.419469 2.509513 -2.339310 7.615604 -19.341997 -8.968558 -14.334476 -25.767178 -6.765155 7.189839 -49.558426 -4.003164 -1.644251 -11.929420 3.298441 -11.664098 13.706452 -3.522848 12.802726 4.639922 -8.146459 -19.338161 52.870208 -14.940657 6.767995 7.223608 2.535352 
-10.330941 114.969681 6.947068 -171.249635 74.262677 -160.749155 -2.060295 -1.637316 -18.855547 -0.376445 -3.322306 3.721092 -0.034877 12.247570 -5.592568 2.028133 1.841291 -0.340519 -3.413387 -0.885056 -25.155581 -2.648575 1.172713 15.171120 2.046888 -9.148777 -7.204166 5.890339 -2.941886 1.394239 6.068836 -0.446920 27.019914 1.418457 -5.942240 8.307892 6.051231 0.595960 -3.408261 -5.665322 -5.606394 11.584761 11.736598 2.616273 -3.813746 9.338230 -22.143143 -10.732502 -13.126627 -27.621174 -8.379082 6.733041 -44.981445 -3.573453 0.221768 -11.255829 4.503430 -12.800734 16.421499 -4.376113 12.734718 6.970485 -9.059517 -17.427113 47.903348 -13.829883 5.116748 6.555384 3.262937 
-9.279360 114.249222 8.352592 -175.116224 73.342653 -160.529063 -1.802096 -1.706659 -22.580866 -0.449349 -2.457167 2.975048 -1.421061 10.557743 -4.911347 2.150944 1.818673 -0.446366 -3.587352 -0.718038 -29.721950 -2.336466 0.029224 17.005883 0.564970 -9.916225 -10.150290 5.910308 -2.892204 1.585289 6.423353 -0.827636 31.724345 1.375545 -5.728629 7.616573 6.912270 0.958241 -3.729394 -5.668510 -6.112198 9.322647 12.036506 1.838259 -5.370451 11.629820 -24.794471 -12.972186 -11.014242 -29.458334 -10.533279 6.308346 -39.285765 -3.625295 0.992124 -10.683548 6.754370 -14.400409 19.297182 -5.830153 12.612367 9.840338 -10.388212 -16.681138 41.771021 -14.195106 3.651761 5.937387 4.438237 
-6.919779 113.465424 9.126711 -178.911220 71.602582 -158.839388 -1.252325 -1.669549 -27.331633 -1.173835 -1.453509 2.359565 -3.997883 8.399768 -2.034478 2.085825 1.884600 -0.570421 -3.941044 -0.438256 -35.274985 -2.451921 -1.503711 20.149637 -0.791845 -11.237019 -13.141193 5.655802 -2.668540 1.785779 7.090857 -1.511128 37.045701 1.343396 -5.412565 6.450222 7.920809 1.675635 -4.142343 -6.125599 -6.018399 5.491265 12.405511 1.401332 -8.601574 14.249933 -28.148509 -15.853632 -7.377229 -29.797531 -12.914592 5.702857 -35.688870 -4.355995 3.585113 -9.995238 7.733733 -16.417039 23.219503 -7.193192 10.103811 11.288608 -12.537787 -14.776495 34.778731 -15.710593 0.729404 4.849505 5.300977 
